<?xml version="1.0" encoding="UTF-8"?>
<!DOCTYPE svg PUBLIC "-//W3C//DTD SVG 1.1//EN" "http://www.w3.org/Graphics/SVG/1.1/DTD/svg11.dtd">
<svg xmlns="http://www.w3.org/2000/svg" xmlns:xlink="http://www.w3.org/1999/xlink" version="1.1" width="263px" height="243px" viewBox="-0.5 -0.5 263 243"><defs><linearGradient x1="0%" y1="0%" x2="0%" y2="100%" id="mx-gradient-fff2cc-1-ffd966-1-s-0"><stop offset="0%" style="stop-color: rgb(255, 242, 204); stop-opacity: 1;"/><stop offset="100%" style="stop-color: rgb(255, 217, 102); stop-opacity: 1;"/></linearGradient></defs><g><rect x="1" y="201" width="130" height="40" fill="#b1ddf0" stroke="#000000" stroke-width="3" pointer-events="all"/><rect x="131" y="201" width="130" height="40" fill="url(#mx-gradient-fff2cc-1-ffd966-1-s-0)" stroke="#000000" stroke-width="3" pointer-events="all"/><rect x="1" y="1" width="130" height="40" fill="#b1ddf0" stroke="#000000" stroke-width="3" pointer-events="all"/><rect x="131" y="1" width="130" height="40" fill="url(#mx-gradient-fff2cc-1-ffd966-1-s-0)" stroke="#000000" stroke-width="3" pointer-events="all"/><rect x="1" y="41" width="130" height="40" fill="#b1ddf0" stroke="#000000" stroke-width="3" pointer-events="all"/><rect x="131" y="41" width="130" height="40" fill="url(#mx-gradient-fff2cc-1-ffd966-1-s-0)" stroke="#000000" stroke-width="3" pointer-events="all"/><rect x="1" y="81" width="130" height="40" fill="#b1ddf0" stroke="#000000" stroke-width="3" pointer-events="all"/><rect x="131" y="81" width="130" height="40" fill="url(#mx-gradient-fff2cc-1-ffd966-1-s-0)" stroke="#000000" stroke-width="3" pointer-events="all"/><rect x="1" y="121" width="130" height="40" fill="#b1ddf0" stroke="#000000" stroke-width="3" pointer-events="all"/><rect x="131" y="121" width="130" height="40" fill="url(#mx-gradient-fff2cc-1-ffd966-1-s-0)" stroke="#000000" stroke-width="3" pointer-events="all"/><rect x="1" y="161" width="130" height="40" fill="#b1ddf0" stroke="#000000" stroke-width="3" pointer-events="all"/><rect x="131" y="161" width="130" height="40" fill="url(#mx-gradient-fff2cc-1-ffd966-1-s-0)" stroke="#000000" stroke-width="3" pointer-events="all"/><path d="M 144.11 11 L 251 86.17 L 144.11 161.33 L 144.11 125.25 C 87.16 125.25 41 168.12 41 221 C 41 124.95 87.16 47.09 144.11 47.09 Z" fill="#e51400" stroke="#b20000" stroke-miterlimit="10" transform="rotate(-181,146,116)" pointer-events="all"/></g></svg>