<?xml version="1.0" encoding="UTF-8"?>
<!DOCTYPE svg PUBLIC "-//W3C//DTD SVG 1.1//EN" "http://www.w3.org/Graphics/SVG/1.1/DTD/svg11.dtd">
<svg xmlns="http://www.w3.org/2000/svg" version="1.1" width="100px" height="100px" style="shape-rendering:geometricPrecision; text-rendering:geometricPrecision; image-rendering:optimizeQuality; fill-rule:evenodd; clip-rule:evenodd" xmlns:xlink="http://www.w3.org/1999/xlink">
<g><path style="opacity:0.98" fill="#26262d" d="M 80.5,28.5 C 80.1667,28.5 79.8333,28.5 79.5,28.5C 81.2516,26.7541 82.5849,24.7541 83.5,22.5C 85.5,21.8333 86.8333,20.5 87.5,18.5C 89.4841,18.516 90.4841,17.516 90.5,15.5C 89.5596,10.3841 86.5596,8.21744 81.5,9C 80.7476,9.67076 80.4142,10.5041 80.5,11.5C 78.5,12.1667 77.1667,13.5 76.5,15.5C 74.2459,16.4151 72.2459,17.7484 70.5,19.5C 70.5,19.1667 70.5,18.8333 70.5,18.5C 73.6293,14.8691 76.9626,11.3691 80.5,8C 88.6667,6.83333 92.1667,10.3333 91,18.5C 87.6309,22.0374 84.1309,25.3707 80.5,28.5 Z"/></g>
<g><path style="opacity:1" fill="#e48787" d="M 87.5,18.5 C 85.5272,15.8605 83.1939,13.5272 80.5,11.5C 80.4142,10.5041 80.7476,9.67076 81.5,9C 86.5596,8.21744 89.5596,10.3841 90.5,15.5C 90.4841,17.516 89.4841,18.516 87.5,18.5 Z"/></g>
<g><path style="opacity:1" fill="#5b688d" d="M 80.5,11.5 C 83.1939,13.5272 85.5272,15.8605 87.5,18.5C 86.8333,20.5 85.5,21.8333 83.5,22.5C 80.8333,20.5 78.5,18.1667 76.5,15.5C 77.1667,13.5 78.5,12.1667 80.5,11.5 Z"/></g>
<g><path style="opacity:1" fill="#e3a824" d="M 76.5,15.5 C 78.5,18.1667 80.8333,20.5 83.5,22.5C 82.5849,24.7541 81.2516,26.7541 79.5,28.5C 77.5,29.8333 75.8333,31.5 74.5,33.5C 72.1667,35.1667 70.1667,37.1667 68.5,39.5C 67.5,39.8333 66.8333,40.5 66.5,41.5C 64.8333,42.5 63.5,43.8333 62.5,45.5C 60.8333,46.5 59.5,47.8333 58.5,49.5C 57.8333,49.1667 57.1667,48.8333 56.5,48.5C 56.5,47.5 56.5,46.5 56.5,45.5C 55.8333,45.8333 55.1667,46.1667 54.5,46.5C 54.1667,45.5 53.5,44.8333 52.5,44.5C 51.0582,43.1805 50.3915,41.5138 50.5,39.5C 56.1082,35.561 61.1082,30.8943 65.5,25.5C 67.1667,23.5 68.8333,21.5 70.5,19.5C 72.2459,17.7484 74.2459,16.4151 76.5,15.5 Z"/></g>
<g><path style="opacity:0.964" fill="#1f222c" d="M 65.5,18.5 C 52.3396,19.331 39.0063,19.831 25.5,20C 23,21.1667 21.1667,23 20,25.5C 19.3333,40.8333 19.3333,56.1667 20,71.5C 20.504,75.0202 22.3374,77.5202 25.5,79C 40.8333,79.6667 56.1667,79.6667 71.5,79C 76,78.5 78.5,76 79,71.5C 79.1691,58.66 79.6691,45.9934 80.5,33.5C 81.6605,46.9938 81.8272,60.6604 81,74.5C 79.8783,76.6238 78.3783,78.4571 76.5,80C 67.5965,81.1402 58.5965,81.6402 49.5,81.5C 40.4035,81.6402 31.4035,81.1402 22.5,80C 20.6217,78.4571 19.1217,76.6238 18,74.5C 17.0285,57.0755 17.3619,39.7421 19,22.5C 20.5429,20.6217 22.3762,19.1217 24.5,18C 38.3396,17.1728 52.0062,17.3395 65.5,18.5 Z"/></g>
<g><path style="opacity:1" fill="#75c4ca" d="M 65.5,18.5 C 67.1667,18.5 68.8333,18.5 70.5,18.5C 70.5,18.8333 70.5,19.1667 70.5,19.5C 68.8333,21.5 67.1667,23.5 65.5,25.5C 65.1667,25.5 64.8333,25.5 64.5,25.5C 64.1788,23.9519 63.1788,23.2852 61.5,23.5C 51.008,22.3412 40.3414,22.1745 29.5,23C 28.0577,23.3768 27.0577,24.2101 26.5,25.5C 26.5,26.1667 26.1667,26.5 25.5,26.5C 24.2101,27.0577 23.3768,28.0577 23,29.5C 22.3333,42.8333 22.3333,56.1667 23,69.5C 23.3768,70.9423 24.2101,71.9423 25.5,72.5C 26.1223,74.335 27.4556,75.5017 29.5,76C 42.4957,76.4999 55.4957,76.6666 68.5,76.5C 72.3722,75.6456 74.8722,73.3123 76,69.5C 76.8213,62.3209 76.6546,55.3209 75.5,48.5C 75.2921,44.1206 75.6255,39.7873 76.5,35.5C 76.2528,34.2867 75.5862,33.62 74.5,33.5C 75.8333,31.5 77.5,29.8333 79.5,28.5C 79.8333,28.5 80.1667,28.5 80.5,28.5C 80.5,30.1667 80.5,31.8333 80.5,33.5C 79.6691,45.9934 79.1691,58.66 79,71.5C 78.5,76 76,78.5 71.5,79C 56.1667,79.6667 40.8333,79.6667 25.5,79C 22.3374,77.5202 20.504,75.0202 20,71.5C 19.3333,56.1667 19.3333,40.8333 20,25.5C 21.1667,23 23,21.1667 25.5,20C 39.0063,19.831 52.3396,19.331 65.5,18.5 Z"/></g>
<g><path style="opacity:1" fill="#292c35" d="M 61.5,23.5 C 51.1613,23.3335 40.828,23.5002 30.5,24C 29.255,24.7914 27.9217,25.2914 26.5,25.5C 27.0577,24.2101 28.0577,23.3768 29.5,23C 40.3414,22.1745 51.008,22.3412 61.5,23.5 Z"/></g>
<g><path style="opacity:1" fill="#86672b" d="M 74.5,20.5 C 75.6878,22.4959 75.0211,23.3293 72.5,23C 73.3805,22.2917 74.0472,21.4584 74.5,20.5 Z"/></g>
<g><path style="opacity:1" fill="#fbfaec" d="M 61.5,23.5 C 63.1788,23.2852 64.1788,23.9519 64.5,25.5C 59.5,29.8333 54.8333,34.5 50.5,39.5C 47.851,41.4121 46.5176,44.0787 46.5,47.5C 44.7329,49.7916 43.7329,52.4582 43.5,55.5C 46.5418,55.2671 49.2084,54.2671 51.5,52.5C 54.461,52.5358 56.7943,51.5358 58.5,49.5C 60.8333,49.1667 62.1667,47.8333 62.5,45.5C 64.8333,45.1667 66.1667,43.8333 66.5,41.5C 66.8333,40.5 67.5,39.8333 68.5,39.5C 71.5,38.5 73.5,36.5 74.5,33.5C 75.5862,33.62 76.2528,34.2867 76.5,35.5C 75.6255,39.7873 75.2921,44.1206 75.5,48.5C 75.6663,55.175 75.4996,61.8417 75,68.5C 73.9817,72.0147 71.8151,74.348 68.5,75.5C 55.8289,75.6666 43.1623,75.4999 30.5,75C 28.8068,74.1534 27.1401,73.3201 25.5,72.5C 25.2914,71.0783 24.7914,69.745 24,68.5C 23.3333,55.8333 23.3333,43.1667 24,30.5C 24.7914,29.255 25.2914,27.9217 25.5,26.5C 26.1667,26.5 26.5,26.1667 26.5,25.5C 27.9217,25.2914 29.255,24.7914 30.5,24C 40.828,23.5002 51.1613,23.3335 61.5,23.5 Z"/></g>
<g><path style="opacity:1" fill="#8e6d2b" d="M 69.5,25.5 C 70.525,25.8966 70.6917,26.5632 70,27.5C 66.5,31 63,34.5 59.5,38C 58.8333,38.6667 58.1667,38.6667 57.5,38C 61.7036,33.9644 65.7036,29.7978 69.5,25.5 Z"/></g>
<g><path style="opacity:1" fill="#8e6d2b" d="M 75.5,25.5 C 76.525,25.8966 76.6917,26.5632 76,27.5C 72.8333,30.6667 69.6667,33.8333 66.5,37C 65.8333,37.6667 65.1667,37.6667 64.5,37C 68.3705,33.2977 72.0371,29.4643 75.5,25.5 Z"/></g>
<g><path style="opacity:1" fill="#2b2f38" d="M 25.5,26.5 C 25.2914,27.9217 24.7914,29.255 24,30.5C 23.3333,43.1667 23.3333,55.8333 24,68.5C 24.7914,69.745 25.2914,71.0783 25.5,72.5C 24.2101,71.9423 23.3768,70.9423 23,69.5C 22.3333,56.1667 22.3333,42.8333 23,29.5C 23.3768,28.0577 24.2101,27.0577 25.5,26.5 Z"/></g>
<g><path style="opacity:1" fill="#906f2f" d="M 64.5,25.5 C 64.8333,25.5 65.1667,25.5 65.5,25.5C 61.1082,30.8943 56.1082,35.561 50.5,39.5C 54.8333,34.5 59.5,29.8333 64.5,25.5 Z"/></g>
<g><path style="opacity:1" fill="#8c8c87" d="M 74.5,33.5 C 73.5,36.5 71.5,38.5 68.5,39.5C 70.1667,37.1667 72.1667,35.1667 74.5,33.5 Z"/></g>
<g><path style="opacity:1" fill="#69655f" d="M 50.5,39.5 C 50.3915,41.5138 51.0582,43.1805 52.5,44.5C 51.4168,44.4606 50.4168,44.1272 49.5,43.5C 48.4793,44.9014 47.4793,46.2347 46.5,47.5C 46.5176,44.0787 47.851,41.4121 50.5,39.5 Z"/></g>
<g><path style="opacity:1" fill="#eaeade" d="M 52.5,44.5 C 53.5,44.8333 54.1667,45.5 54.5,46.5C 54.8333,47.5 55.5,48.1667 56.5,48.5C 55.1727,50.1816 53.5061,51.5149 51.5,52.5C 48.1667,52.5 46.5,50.8333 46.5,47.5C 47.4793,46.2347 48.4793,44.9014 49.5,43.5C 50.4168,44.1272 51.4168,44.4606 52.5,44.5 Z"/></g>
<g><path style="opacity:1" fill="#88682b" d="M 56.5,45.5 C 57.4577,44.0384 58.6244,42.7051 60,41.5C 60.1681,43.8411 59.0014,45.1744 56.5,45.5 Z"/></g>
<g><path style="opacity:1" fill="#888883" d="M 66.5,41.5 C 66.1667,43.8333 64.8333,45.1667 62.5,45.5C 63.5,43.8333 64.8333,42.5 66.5,41.5 Z"/></g>
<g><path style="opacity:1" fill="#57472d" d="M 56.5,45.5 C 56.5,46.5 56.5,47.5 56.5,48.5C 55.5,48.1667 54.8333,47.5 54.5,46.5C 55.1667,46.1667 55.8333,45.8333 56.5,45.5 Z"/></g>
<g><path style="opacity:1" fill="#888883" d="M 62.5,45.5 C 62.1667,47.8333 60.8333,49.1667 58.5,49.5C 59.5,47.8333 60.8333,46.5 62.5,45.5 Z"/></g>
<g><path style="opacity:1" fill="#72716f" d="M 56.5,48.5 C 57.1667,48.8333 57.8333,49.1667 58.5,49.5C 56.7943,51.5358 54.461,52.5358 51.5,52.5C 53.5061,51.5149 55.1727,50.1816 56.5,48.5 Z"/></g>
<g><path style="opacity:1" fill="#3a3a3e" d="M 46.5,47.5 C 46.5,50.8333 48.1667,52.5 51.5,52.5C 49.2084,54.2671 46.5418,55.2671 43.5,55.5C 43.7329,52.4582 44.7329,49.7916 46.5,47.5 Z"/></g>
<g><path style="opacity:1" fill="#3f4d54" d="M 75.5,48.5 C 76.6546,55.3209 76.8213,62.3209 76,69.5C 74.8722,73.3123 72.3722,75.6456 68.5,76.5C 68.5,76.1667 68.5,75.8333 68.5,75.5C 71.8151,74.348 73.9817,72.0147 75,68.5C 75.4996,61.8417 75.6663,55.175 75.5,48.5 Z"/></g>
<g><path style="opacity:1" fill="#272d36" d="M 25.5,72.5 C 27.1401,73.3201 28.8068,74.1534 30.5,75C 43.1623,75.4999 55.8289,75.6666 68.5,75.5C 68.5,75.8333 68.5,76.1667 68.5,76.5C 55.4957,76.6666 42.4957,76.4999 29.5,76C 27.4556,75.5017 26.1223,74.335 25.5,72.5 Z"/></g>
</svg>
