<?xml version="1.0" encoding="UTF-8" standalone="no"?>
<!-- Created with Inkscape (http://www.inkscape.org/) -->

<svg
   xmlns:dc="http://purl.org/dc/elements/1.1/"
   xmlns:cc="http://creativecommons.org/ns#"
   xmlns:rdf="http://www.w3.org/1999/02/22-rdf-syntax-ns#"
   xmlns:svg="http://www.w3.org/2000/svg"
   xmlns="http://www.w3.org/2000/svg"
   xmlns:sodipodi="http://sodipodi.sourceforge.net/DTD/sodipodi-0.dtd"
   xmlns:inkscape="http://www.inkscape.org/namespaces/inkscape"
   width="64"
   height="64"
   viewBox="0 0 16.933333 16.933334"
   version="1.1"
   id="svg8"
   inkscape:version="0.92.4 (5da689c313, 2019-01-14)"
   sodipodi:docname="Initiate.svg">
  <defs
     id="defs2" />
  <sodipodi:namedview
     id="base"
     pagecolor="#ffffff"
     bordercolor="#666666"
     borderopacity="1.0"
     inkscape:pageopacity="0.0"
     inkscape:pageshadow="2"
     inkscape:zoom="11.2"
     inkscape:cx="45.266272"
     inkscape:cy="28.078064"
     inkscape:document-units="mm"
     inkscape:current-layer="layer1"
     showgrid="false"
     units="px"
     inkscape:window-width="1920"
     inkscape:window-height="1017"
     inkscape:window-x="-8"
     inkscape:window-y="-8"
     inkscape:window-maximized="1" />
  <metadata
     id="metadata5">
    <rdf:RDF>
      <cc:Work
         rdf:about="">
        <dc:format>image/svg+xml</dc:format>
        <dc:type
           rdf:resource="http://purl.org/dc/dcmitype/StillImage" />
        <dc:title></dc:title>
      </cc:Work>
    </rdf:RDF>
  </metadata>
  <g
     inkscape:label="Layer 1"
     inkscape:groupmode="layer"
     id="layer1"
     transform="translate(0,-280.06665)">
    <path
       style="fill:none;stroke:#000000;stroke-width:0.75;stroke-linecap:butt;stroke-linejoin:miter;stroke-opacity:1;stroke-miterlimit:4;stroke-dasharray:none"
       d="m 6.3074777,281.14861 c 0.031498,-0.008 0.062139,-0.0209 0.094494,-0.0236 0.062778,-0.005 0.1259919,0 0.1889879,0 0.078745,0 0.15749,0 0.236235,0 0.2598587,0 0.5200418,-0.013 0.779576,0 0.5005549,0.025 0.6629038,0.0908 1.1339285,0.14174 0.1255067,0.0136 0.2518812,0.0176 0.3779764,0.0236 0.094387,0.004 0.1889879,0 0.2834819,0 0.023625,0 0.047329,-0.002 0.07087,0 0.071061,0.006 0.1415151,0.0181 0.2126118,0.0236 0.031405,0.002 0.063066,-0.002 0.094494,0 0.7077028,0.0472 -0.256118,2.1e-4 0.5905878,0.0473 0.03145,0.002 0.063,0 0.09449,0 0.07087,0 0.141741,0 0.212611,0 0.165365,0 0.330729,0 0.496094,0 0.220486,0 0.440972,0 0.661458,0 0.118118,0 0.236235,0 0.354353,0 0.03937,0 0.07875,0 0.118118,0 0.01575,0 0.03197,0.004 0.04725,0 0.01708,-0.004 0.03054,-0.0181 0.04725,-0.0236 0.0075,-0.002 0.01575,0 0.02362,0 0.07087,0 0.141741,0 0.212612,0 0.125992,0 0.251984,0 0.377976,0 0.05512,0 0.110243,0 0.165365,0 0.02362,0 0.0477,0.005 0.07087,0 0.01727,-0.003 0.03054,-0.018 0.04725,-0.0236 0.01562,-0.005 0.118534,0 0.141741,0 0.141741,0 0.283482,0 0.425223,0 0.04725,0 0.09449,0 0.141742,0 0.02362,0 0.04739,0.003 0.07087,0 0.04761,-0.005 0.09408,-0.0189 0.141741,-0.0236 0.03134,-0.003 0.063,0 0.09449,0 0.118118,0 0.236235,0 0.354353,0 0.02362,0 0.04743,0.003 0.07087,0 0.03984,-0.005 0.08369,-0.0443 0.118118,-0.0236 0.02701,0.0162 0,0.063 0,0.0945 0,0.15521 0.0026,0.008 -0.02362,0.28348 -0.05435,0.57065 -0.0084,0.0537 -0.02363,0.44885 -0.0058,0.14971 -0.01894,0.29909 -0.02362,0.44884 -0.0049,0.15742 0,0.31498 0,0.47247 0,0.17324 0,0.34648 0,0.51972 0,0.0394 -0.0028,0.0788 0,0.11812 0.01295,0.18133 0.03554,0.36192 0.04725,0.54334 0.0041,0.0629 -0.0047,0.12616 0,0.18899 0.01111,0.15003 0.04135,0.29852 0.04725,0.44884 0.0099,0.2518 -0.0059,0.50404 0,0.75596 0.002,0.087 0.02195,0.17289 0.02362,0.25986 0.0062,0.32279 0,0.6457 0,0.96856 0,0.12599 -0.0031,0.25202 0,0.37798 0.0036,0.14945 0.04012,0.96632 0.04725,1.13392 0.008,0.18899 0.01313,0.37811 0.02362,0.56697 0.05,0.90004 0.01253,-0.81008 0.04725,1.13393 0,1.14705 -0.0092,-0.14495 0.02362,0.87407 0.0036,0.11018 0,0.22048 0,0.33073 0,0.0472 -0.0033,0.0946 0,0.14174 0.01251,0.18136 0.03554,0.36192 0.04725,0.54334 0.0041,0.0629 -0.0026,0.12604 0,0.18899 0.0053,0.12612 0.01837,0.25184 0.02362,0.37797 0.0026,0.0629 0,0.12599 0,0.18899 0,0.12599 0,0.25198 0,0.37798 0,0.0472 -0.0029,0.0946 0,0.14174 0.03736,0.59773 1.2e-4,0.0244 0.04725,0.33073 0.01084,0.0705 0.0119,0.14227 0.02362,0.21261 0.0041,0.0246 0.0201,0.0462 0.02362,0.0709 0.0123,0.0861 0.01538,0.17327 0.02363,0.25986 0.0075,0.0788 0.01755,0.15733 0.02362,0.23623 0.0018,0.0236 0,0.0473 0,0.0709 0,0.0551 0,0.11025 0,0.16537 0,0.19686 0,0.39372 0,0.59059 0,0.17323 0,0.34647 0,0.51971 0,0.0158 0,0.0315 0,0.0473 0,0.0236 0.0131,0.0512 0,0.0709 -0.0087,0.0131 -0.0315,0 -0.04725,0 -0.01575,0 -0.0315,0 -0.04725,0 -0.07874,0 -0.157491,0 -0.236236,0 -0.496093,0 -0.992187,0 -1.488281,0 -0.354353,0 -0.708705,0 -1.063058,0 -0.228361,0 -0.456783,-0.005 -0.685082,0 -0.616933,0.0143 -0.105109,0.0147 -0.496093,0.0472 -0.178883,0.0659 -0.36259,0.01 -0.543341,0.0236 -0.15749,0.0158 -0.31498,0.0315 -0.47247,0.0473 -0.0315,0 -0.06305,-0.002 -0.09449,0 -0.102493,0.006 -0.2044812,0.0205 -0.3071049,0.0236 -0.2125141,0.006 -0.4252232,0 -0.637835,0 -0.1259919,0 -0.252114,-0.006 -0.377976,0 -0.047849,0.002 -0.093964,0.0202 -0.141741,0.0236 -0.062836,0.004 -0.1261147,-0.004 -0.1889882,0 -0.063363,0.004 -0.1255995,0.0201 -0.1889882,0.0236 -0.078623,0.004 -0.15749,0 -0.236235,0 -0.4435528,0 0.084828,0.003 -0.7323289,-0.0236 -0.6611434,-0.0213 0.6610829,0.0565 -0.6614583,-0.0236 -0.1024829,-0.006 -0.2050626,-0.0123 -0.3071056,-0.0236 -0.039907,-0.004 -0.078035,-0.0213 -0.1181176,-0.0236 -0.1100527,-0.006 -0.220486,0 -0.3307292,0 -0.07087,0 -0.141741,0 -0.2126115,0 -0.023625,0 -0.047364,0.002 -0.070871,0 -0.1662144,-0.0166 -0.3300722,-0.0524 -0.4960937,-0.0709 -0.031306,-0.003 -0.063029,10e-4 -0.094494,0 -0.1418132,-0.006 -0.283754,-0.0118 -0.4252233,-0.0236 -0.047733,-0.004 -0.093916,-0.021 -0.1417409,-0.0236 -0.094349,-0.005 -0.1889882,0 -0.2834823,0 -0.062996,0 -0.1262097,0.005 -0.1889882,0 -0.032355,-0.003 -0.062996,-0.0158 -0.094494,-0.0236 -0.094494,0 -0.189172,0.006 -0.2834819,0 -0.032404,-0.002 -0.06209,-0.0216 -0.094494,-0.0236 -0.09431,-0.006 -0.1892462,0.007 -0.2834823,0 -0.7535437,-0.10047 0.020571,-0.0131 -0.6614582,-0.0473 -0.115537,-0.006 -0.2972798,-0.0548 -0.4015997,-0.0709 -0.023349,-0.004 -0.047247,0 -0.07087,0 -0.023624,0 -0.047247,0 -0.070871,0 -0.032696,0 -0.120885,-0.005 -0.141741,0 -0.010804,0.003 -0.01282,0.0209 -0.023624,0.0236 -0.022918,0.006 -0.048156,-0.006 -0.070871,0 -0.033861,0.01 -0.061797,0.0342 -0.094494,0.0472 -0.00731,0.003 -0.016153,-0.002 -0.023624,0 -0.016705,0.006 -0.030543,0.0181 -0.047247,0.0236 -0.00747,0.002 -0.018055,-0.006 -0.023624,0 -0.00557,0.006 -0.00249,0.0311 0,0.0236 0.010267,-0.0308 0.011566,-0.0643 0.023624,-0.0945 0.019618,-0.0491 0.055692,-0.0912 0.070871,-0.14174 0.00905,-0.0302 -0.0058,-0.0635 0,-0.0945 0.01795,-0.0957 0.053943,-0.18756 0.070871,-0.28348 0.00684,-0.0388 -0.00291,-0.0788 0,-0.11812 0.1495853,-1.64543 0.0164,-0.006 0.047247,-0.68508 0.013286,-0.29238 0.038478,-0.45795 0.047243,-0.75595 0.00394,-0.13381 0,-0.26774 0,-0.4016 0,-0.59059 0,-1.18118 0,-1.77177 0,-0.16536 0,-0.33073 0,-0.49609 0,-0.13387 -0.00461,-0.26781 0,-0.4016 0.00327,-0.0948 0.020114,-0.18873 0.023624,-0.28348 0.00437,-0.11804 -0.00437,-0.23632 0,-0.35435 0.013505,-0.36464 0.018871,-0.17455 0.047247,-0.44885 0.0179,-0.17303 0.029347,-0.34669 0.047247,-0.51972 0.00573,-0.0554 0.021884,-0.10971 0.023624,-0.16536 0.00615,-0.19677 0,-0.39373 0,-0.59059 0,-0.29923 0,-0.59846 0,-0.89769 0,-0.22049 0,-0.44098 0,-0.66146 0,-0.0787 0,-0.15749 0,-0.23624 0,-0.0787 0.00328,-0.15756 0,-0.23623 -0.0046,-0.11043 -0.017493,-0.22038 -0.023624,-0.33073 -0.00928,-0.16705 0.016241,-0.0325 0,-0.25986 -0.00397,-0.0555 -0.018582,-0.10991 -0.023624,-0.16537 -0.00285,-0.0314 0,-0.063 0,-0.0945 0,-0.0787 0,-0.15749 0,-0.23623 0,-0.0551 0,-0.11025 0,-0.16537 0,-0.0236 0.00463,-0.0477 0,-0.0709 -0.00345,-0.0173 -0.018786,-0.0303 -0.023624,-0.0472 -0.011031,-0.0386 -0.012593,-0.0795 -0.023623,-0.11811 -0.012874,-0.0451 -0.05222,-0.0609 -0.023624,-0.11812 0.00787,-0.0157 0.031498,-0.0157 0.047247,-0.0236 0.090062,-0.045 0.1236227,-0.0588 0.2126116,-0.11811 0.1272165,-0.0848 0.2507597,-0.17505 0.3779762,-0.25986 0.3779761,-0.25199 -0.3464781,0.28348 0.4724702,-0.28348 0.039922,-0.0276 0.5202335,-0.42987 0.5433409,-0.44885 0.1254421,-0.10304 0.2542852,-0.20197 0.3779761,-0.30711 0.03394,-0.0288 0.05787,-0.0691 0.094494,-0.0945 0.066657,-0.0462 0.1463775,-0.0714 0.2126114,-0.11812 0.4056312,-0.28633 0.00138,-0.0622 0.3307292,-0.25986 0.030197,-0.0181 0.062996,-0.0315 0.094494,-0.0472 0.07087,-0.0394 0.1435653,-0.0756 0.2126117,-0.11812 0.033532,-0.0206 0.059929,-0.052 0.094494,-0.0709 0.052648,-0.0287 0.1142902,-0.0394 0.1653646,-0.0709 0.052379,-0.0322 0.087749,-0.0887 0.141741,-0.11812 0.035249,-0.0192 0.082204,-0.006 0.1181174,-0.0236 0.1889882,-0.0945 0.1574903,-0.1155 0.2834823,-0.18899 0.070029,-0.0408 0.141438,-0.0793 0.2126115,-0.11812 0.015457,-0.008 0.032596,-0.0139 0.047247,-0.0236 0.118699,-0.0791 0.075342,-0.0731 0.2126115,-0.14174 0.00704,-0.004 0.015748,0 0.023625,0 0.023625,-0.0158 0.048157,-0.0302 0.07087,-0.0473 0.019783,-0.0148 0.051539,-0.0612 0.07087,-0.0709 0.032585,-0.0163 0.02113,0.0286 0.047247,-0.0236 0.00704,-0.0141 -0.00704,-0.0332 0,-0.0472 0.054058,-0.10812 -0.00979,0.10024 0.047247,-0.0709 0.00498,-0.0149 0,-0.0315 0,-0.0473 0,-0.0926 0.00678,-0.0573 -0.047247,-0.16536 z"
       id="path903"
       inkscape:connector-curvature="0" />
    <path
       style="fill:none;stroke:#000000;stroke-width:0.75;stroke-linecap:butt;stroke-linejoin:miter;stroke-opacity:1;stroke-miterlimit:4;stroke-dasharray:none"
       d="m 6.3074777,281.14861 c 0.023625,0.0472 0.054166,0.0916 0.07087,0.14174 0.00747,0.0224 -0.00156,0.0473 0,0.0709 0.00631,0.0946 0.01864,0.18879 0.023625,0.28348 0.0029,0.055 0,0.11024 0,0.16537 0,0.12599 0,0.25198 0,0.37797 0,0.0709 -0.00588,0.14199 0,0.21261 0.00206,0.0248 0.020103,0.0462 0.023625,0.0709 0.00446,0.0312 0,0.063 0,0.0945 0,0.063 -0.00483,0.12618 0,0.18899 0.00487,0.0633 0.017875,0.12576 0.023625,0.18898 0.00214,0.0235 0,0.0473 0,0.0709 0,0.0473 0,0.0945 0,0.14175 0,0.0945 0,0.18898 0,0.28348 0,0.27561 0,0.55121 0,0.82682 0,0.0315 -0.00446,0.0633 0,0.0945 0.00459,0.0322 0.017256,0.0627 0.023625,0.0945 0.00153,0.008 0,0.0158 0,0.0236 0,0.0394 0,0.0788 0,0.11812 0,0.063 0,0.12599 0,0.18899 0,0.0315 0,0.063 0,0.0945 0,0.008 0.00557,0.0181 0,0.0236 -1.257e-4,1.2e-4 -0.070081,-2e-4 -0.07087,0 -0.017082,0.004 -0.030543,0.0181 -0.047247,0.0236 -0.00747,0.002 -0.015902,-0.002 -0.023625,0 -0.031837,0.006 -0.062353,0.019 -0.094494,0.0236 -0.023386,0.003 -0.047247,0 -0.070871,0 -0.031498,0 -0.062996,0 -0.094494,0 -0.2441096,0 -0.4882192,0 -0.7323291,0 -0.6142111,0 -1.2284225,0 -1.8426337,0 -0.1968627,0 -0.3937254,0 -0.5905878,0 -0.08662,0 -0.1732391,0 -0.2598587,0 -0.023623,0 -0.047706,0.005 -0.07087,0 -0.017266,-0.003 -0.030165,-0.0194 -0.047247,-0.0236 -0.015279,-0.004 -0.031498,0 -0.047247,0 -0.039373,0 -0.078745,0 -0.1181176,0 -0.00787,0 -0.015902,0.002 -0.023624,0 -0.031498,-0.008 -0.062996,-0.0157 -0.094494,-0.0236 0,-0.008 0.00704,-0.0201 0,-0.0236 -0.019338,-0.01 -0.09311,0.008 -0.1181176,0 -0.016704,-0.006 -0.030165,-0.0194 -0.047247,-0.0236 -0.022918,-0.006 -0.047247,0 -0.070871,0"
       id="path905"
       inkscape:connector-curvature="0" />
    <path
       style="fill:none;stroke:#000000;stroke-width:0.75;stroke-linecap:butt;stroke-linejoin:miter;stroke-opacity:1;stroke-miterlimit:4;stroke-dasharray:none"
       d="m 7.9847468,283.69995 c 0.2204863,0.0157 0.4406731,0.0365 0.6614583,0.0472 0.1022472,0.005 0.2047373,0 0.3071059,0 0.2756074,0 0.5512152,0 0.8268229,0 0.3464781,0 0.6929561,0 1.0394341,0 0.283483,0 0.566965,0 0.850447,0 0.0315,0 0.06331,0.004 0.09449,0 0.0493,-0.007 0.09342,-0.0352 0.141741,-0.0472 0.0076,-0.002 0.01605,0.002 0.02362,0 0.04789,-0.0137 0.09343,-0.0352 0.141741,-0.0473 0.01528,-0.004 0.0315,0 0.04725,0 0.09449,0 0.189717,0.0117 0.283482,0 0.03494,-0.004 0.0618,-0.0342 0.09449,-0.0472 0.0073,-0.003 0.01575,0 0.02362,0 0.01575,0 0.0315,0 0.04725,0"
       id="path907"
       inkscape:connector-curvature="0" />
    <path
       style="fill:none;stroke:#000000;stroke-width:0.75;stroke-linecap:butt;stroke-linejoin:miter;stroke-opacity:1;stroke-miterlimit:4;stroke-dasharray:none"
       d="m 4.063244,286.58201 c 0.4246468,0.0238 0.8509434,-0.0206 1.2756695,0 0.2919714,0.0141 0.5827435,0.0469 0.8740701,0.0709 0.3780068,0.0311 0.7553428,0.0715 1.1339285,0.0945 0.5271447,0.0321 1.0552527,0.0457 1.5827753,0.0709 0.1339461,0.006 0.2677332,0.0158 0.4015996,0.0236 0.2204863,0.008 0.4410012,0.015 0.6614584,0.0236 0.1811456,0.007 0.3621186,0.0188 0.5433406,0.0236 0.118077,0.003 0.236235,0 0.354353,0 0.165364,0 0.330729,0 0.496094,0 0.125992,0 0.252304,0.009 0.377976,0 0.01756,-0.001 0.03032,-0.0188 0.04725,-0.0236 0.09349,-0.0267 0.09368,-0.0236 0.165364,-0.0236 0.06832,0 0.121422,0.003 0.188989,-0.0236 0.01034,-0.004 0.01366,-0.0186 0.02362,-0.0236 0.01394,-0.007 0.05462,0.005 0.07087,0 0.0167,-0.006 0.0326,-0.0138 0.04725,-0.0236 0.0093,-0.006 0.01306,-0.0201 0.02362,-0.0236 0.05512,-0.0184 0.04725,0.0249 0.04725,-0.0236"
       id="path909"
       inkscape:connector-curvature="0" />
    <path
       style="fill:none;stroke:#000000;stroke-width:0.75;stroke-linecap:butt;stroke-linejoin:miter;stroke-opacity:1;stroke-miterlimit:4;stroke-dasharray:none"
       d="m 3.047433,290.22004 c 0.055121,0 0.1107971,0.008 0.1653645,0 0.056751,-0.008 0.1102432,-0.0315 0.1653646,-0.0472 0.1574901,-0.0236 0.3143528,-0.0519 0.4724702,-0.0709 0.4878289,-0.0585 0.5490821,-0.0464 0.8976936,-0.0945 0.5703277,-0.0787 0.3225607,-0.0709 0.6614584,-0.0709 0.1259919,0 0.2525014,-0.0114 0.377976,0 0.088952,0.008 0.7030802,0.0937 0.921317,0.14174 0.3078158,0.0677 0.6132248,0.14616 0.921317,0.21262 0.093644,0.0202 0.1894578,0.0289 0.283482,0.0472 0.2288807,0.0447 0.455164,0.10277 0.6850819,0.14174 0.469949,0.0797 0.9472446,0.11063 1.4174108,0.18899 0.09608,0.016 0.186747,0.0595 0.283482,0.0709 0.17223,0.0203 0.346402,0.0177 0.519717,0.0236 0.05509,0.002 0.110243,0 0.165365,0 0.125992,0 0.251984,0 0.377976,0 0.133867,0 0.267733,0 0.4016,0 0.03937,0 0.07992,0.01 0.118117,0 0.0076,-0.002 0.0056,-0.0181 0,-0.0236 -0.0056,-0.006 -0.01575,0 -0.02362,0 -0.0315,0 -0.063,0 -0.09449,0"
       id="path911"
       inkscape:connector-curvature="0" />
    <path
       style="fill:none;stroke:#000000;stroke-width:0.75;stroke-linecap:butt;stroke-linejoin:miter;stroke-opacity:1;stroke-miterlimit:4;stroke-dasharray:none"
       d="m 3.4726562,293.76356 c 0.031498,0.008 0.06206,0.0222 0.094494,0.0236 0.084133,0.004 0.5448604,-0.002 0.6850819,0 0.3858773,0.006 0.7719851,0.007 1.1575521,0.0236 0.7012733,0.0305 1.4010494,0.0918 2.1024924,0.11812 0.5587526,0.021 1.1182643,0.0111 1.6772694,0.0236 0.4962194,0.0111 0.992082,0.0353 1.488281,0.0473 0.157445,0.004 0.31498,0 0.47247,0 0.259859,0 0.519718,0 0.779576,0 0.08662,0 0.17324,0 0.259859,0 0.063,0 0.125992,0 0.188988,0 0.02363,0 0.04725,0 0.07087,0 0.0079,0 0.01658,-0.004 0.02362,0 0.01,0.005 0.01575,0.0158 0.02362,0.0236"
       id="path913"
       inkscape:connector-curvature="0" />
    <path
       style="fill:#ffffff;stroke:none;stroke-width:1.00157481;stroke-dasharray:none"
       d="m 26.874674,58.525459 c -1.080536,-0.03979 -2.278755,-0.11603 -2.66271,-0.169434 -0.383955,-0.0534 -1.207469,-0.09626 -1.830032,-0.09523 -0.622562,10e-4 -1.614075,-0.05911 -2.203361,-0.133643 C 19.113034,57.992388 18.526671,57.950337 13.75,57.666123 12.375,57.584311 10.787946,57.489586 10.223214,57.455624 9.6584821,57.421662 8.9147396,57.340909 8.5704532,57.276173 l -0.6259753,-0.1177 0.025565,-0.364951 C 7.9841044,56.592799 8.0534997,55.745536 8.1242552,54.910714 8.1950106,54.075893 8.2535749,53.272321 8.254398,53.125 8.2874303,47.213001 8.4203534,36.216049 8.4595475,36.152631 8.4889784,36.105012 8.5864594,35.384224 8.676172,34.550882 8.818246,33.231154 8.839063,32.235296 8.8375596,26.830357 8.8366104,23.417411 8.8083626,20.442306 8.7747871,20.219014 l -0.061046,-0.405986 0.5984868,0.06658 c 0.3291677,0.03662 3.6864371,0.06864 7.4605991,0.07116 7.396951,0.0049 7.345412,0.0078 8.339484,-0.468504 0.385231,-0.184597 0.422499,-0.234575 0.612618,-0.821554 l 0.202434,-0.625 -0.08924,-4.330357 c -0.04908,-2.381696 -0.111457,-5.198509 -0.13861,-6.2595837 l -0.04937,-1.9292266 1.014215,-0.060727 c 1.189014,-0.071193 3.093298,0.055313 4.541002,0.3016706 0.564732,0.096101 1.75,0.217628 2.633929,0.2700597 0.883928,0.052432 2.51116,0.1543144 3.616071,0.2264057 2.523579,0.1646543 6.828321,0.164179 12.631082,-0.00139 2.453792,-0.070016 4.466432,-0.1193239 4.472532,-0.1095738 0.0061,0.00975 -0.01944,0.6806737 -0.05675,1.4909416 -0.151655,3.2932855 -0.09364,6.2203725 0.184942,9.3303575 0.04839,0.540178 0.11044,2.930803 0.137898,5.3125 0.05179,4.492537 0.244294,10.39298 0.394704,12.098214 0.04765,0.540179 0.109539,2.649554 0.137537,4.6875 0.028,2.037946 0.09096,4.147332 0.139915,4.687523 0.04895,0.540191 0.125713,2.368316 0.170573,4.0625 0.04486,1.694184 0.120425,3.241048 0.167923,3.437477 0.275823,1.140674 0.307557,1.505353 0.347683,3.995536 l 0.0428,2.65625 -6.5506,1.5e-5 c -5.451787,1.2e-5 -6.667989,0.02248 -7.250419,0.133928 -0.3849,0.07365 -1.108114,0.135678 -1.607143,0.137834 -0.499028,0.0022 -1.208663,0.04271 -1.576967,0.09011 -0.591245,0.0761 -4.355217,0.2038 -8.883928,0.301408 -0.834822,0.01799 -2.401932,1.79e-4 -3.482469,-0.03962 z m 20.402112,-4.452821 c 0,-0.04353 -0.179867,-0.106121 -0.399705,-0.139087 -0.219837,-0.03297 -0.425776,-0.102124 -0.457641,-0.153683 -0.03187,-0.05156 0.37403,-0.527053 0.901989,-1.056654 0.527959,-0.529601 0.935438,-1.002531 0.905509,-1.050955 -0.02993,-0.04842 -0.205732,-0.163243 -0.390676,-0.255152 C 47.5255,51.262672 47.147917,51.245718 42.857143,51.193532 36.016468,51.110335 28.617158,50.950689 26.785714,50.846781 25.901786,50.79663 24.174107,50.692427 22.946429,50.615218 21.71875,50.538009 19.075813,50.448356 17.073234,50.41599 l -3.641051,-0.05885 -0.08181,0.3125 c -0.471637,1.801587 -0.60946,2.464135 -0.529283,2.544381 0.05551,0.05555 1.689251,0.11276 4.303833,0.150696 2.715421,0.0394 5.167063,0.127025 6.892934,0.246362 1.618072,0.111885 4.55212,0.222 7.410714,0.278127 2.602679,0.0511 5.575893,0.124786 6.607143,0.163742 2.668137,0.100792 9.241072,0.114795 9.241072,0.01969 z M 45.775938,41.448387 c 0.643799,-0.550208 0.732175,-0.932339 0.388991,-1.681953 -0.377719,-0.825046 -0.395754,-0.829058 -3.620286,-0.805394 -2.64173,0.01939 -2.973889,-0.0029 -4.330357,-0.290811 -0.34375,-0.07296 -1.629465,-0.257168 -2.857143,-0.409361 -2.355481,-0.292004 -4.509614,-0.687444 -8.035714,-1.475139 -3.081958,-0.688479 -4.208477,-0.858734 -6.039259,-0.912742 -1.311172,-0.03868 -1.789733,-0.01489 -2.857143,0.142042 -0.705194,0.103675 -1.945116,0.252516 -2.755384,0.330757 -0.810268,0.07824 -1.935268,0.223453 -2.5,0.322694 -0.564732,0.09924 -1.177455,0.200572 -1.361607,0.225179 l -0.334822,0.04474 v 1.463837 1.463835 h 0.383027 c 0.210665,0 0.618628,-0.06137 0.906586,-0.136369 0.685928,-0.178662 1.989096,-0.364113 3.75503,-0.534369 0.785714,-0.07575 1.799939,-0.19692 2.253834,-0.269263 2.090419,-0.333178 4.0396,-0.157179 7.880095,0.711526 3.327925,0.752763 6.207024,1.277461 8.614087,1.569866 1.226588,0.149002 2.431945,0.33384 2.678572,0.410749 0.648125,0.202115 2.074881,0.280565 4.872505,0.267913 L 45.276757,41.875 Z M 45.446429,27.109203 c 0.938435,-0.143973 1.58732,-0.336366 1.861292,-0.551872 0.240163,-0.188912 0.951208,-1.185434 0.951208,-1.333107 0,-0.05535 -0.376848,-0.0903 -0.97375,-0.0903 h -0.97375 l -0.1342,-0.393853 c -0.12904,-0.378713 -0.126566,-0.401022 0.06433,-0.580357 0.148657,-0.139656 0.320436,-0.188081 0.683842,-0.192781 0.353585,-0.0046 0.436847,-0.0271 0.306746,-0.08301 -0.291189,-0.125129 -0.926676,-0.09947 -1.213803,0.04901 -0.531136,0.274662 -1.651694,0.352956 -4.946911,0.345644 -1.767858,-0.0039 -4.138393,-0.05436 -5.267858,-0.112078 -1.129464,-0.05772 -3.419642,-0.165931 -5.089285,-0.240466 -1.669643,-0.07453 -3.73884,-0.196624 -4.598215,-0.271308 C 25.2567,23.580045 23.669647,23.440759 22.58929,23.34521 21.201028,23.222429 19.861388,23.171214 18.021015,23.170561 l -2.60399,-9.23e-4 -0.04981,0.647321 c -0.0274,0.356027 -0.07409,1.019849 -0.103758,1.475158 l -0.05394,0.827837 2.752391,-0.01276 c 2.418251,-0.01121 3.115506,0.02021 5.743462,0.258831 4.17992,0.379539 5.111526,0.433292 12.723214,0.734118 1.276786,0.05046 2.482143,0.104653 2.678572,0.120425 0.904191,0.07261 5.687887,-0.01143 6.339286,-0.111369 z M 45.178571,15.223214 c 0.343438,-0.09821 0.888608,-0.178571 1.21149,-0.178571 0.580988,0 1.370104,-0.20023 1.478159,-0.375066 0.03499,-0.05662 -0.0151,-0.06795 -0.133824,-0.03027 -0.187978,0.05966 -0.189753,0.04712 -0.189753,-1.341131 V 11.89682 l -0.379464,0.06499 c -0.208706,0.03574 -0.761161,0.09657 -1.227679,0.135159 -0.466518,0.03859 -1.049107,0.134585 -1.294643,0.213314 -0.390659,0.125261 -1.173613,0.143264 -6.267458,0.14411 -3.421991,5.71e-4 -6.286184,-0.03878 -6.949679,-0.09549 -0.620757,-0.05305 -1.141763,-0.08318 -1.157791,-0.06696 -0.04308,0.04359 -0.247738,2.847486 -0.210468,2.883467 0.125415,0.121078 3.327194,0.201602 8.469609,0.213009 5.781347,0.01282 6.052527,0.0061 6.651501,-0.165203 z"
       id="path947"
       transform="matrix(0.26458333,0,0,0.26458333,0,280.06665)" />
    <path
       style="fill:#ffffff;stroke:none;stroke-width:1.00157;stroke-dasharray:none"
       d="M 9.651095,16.929294 9.3021901,16.875 9.861735,16.5625 c 1.176896,-0.657284 2.260139,-1.440661 4.200765,-3.037899 1.104911,-0.9094 2.20144,-1.765747 2.436732,-1.902994 0.235293,-0.137246 0.621726,-0.417629 0.858742,-0.623073 0.237016,-0.205444 0.725869,-0.534248 1.086339,-0.730677 0.360472,-0.196428 0.892824,-0.48577 1.183005,-0.6429813 0.29018,-0.1572111 0.593191,-0.343307 0.673356,-0.4135463 0.08017,-0.070239 0.246201,-0.1571307 0.368969,-0.1930919 0.261835,-0.076697 0.772897,-0.366923 1.026786,-0.5830995 0.09821,-0.083626 0.3637,-0.2583958 0.589968,-0.3883782 l 0.411399,-0.2363315 0.10402,1.9430002 c 0.05721,1.0686495 0.113154,3.1383385 0.124316,4.5993085 l 0.0203,2.656308 -6.473215,-0.01273 c -3.560268,-0.007 -6.6302212,-0.03716 -6.822119,-0.06702 z"
       id="path3208"
       transform="matrix(0.26458333,0,0,0.26458333,0,280.06665)" />
  </g>
</svg>
